<?xml version="1.0" encoding="UTF-8"?>
<svg version="1.1" xmlns="http://www.w3.org/2000/svg" width="256" height="256">
<path d="M0 0 C19.86888927 6.86772477 36.7089163 17.29454822 51.69628906 32.05004883 C52.499375 32.82864258 53.30246094 33.60723633 54.12988281 34.40942383 C68.53418468 49.28804412 75.14327409 68.64265294 74.90722656 89.20239258 C73.527231 114.37453382 64.44337986 138.68376358 45.69628906 156.05004883 C38.32294281 162.12353464 28.57701095 169.05004883 18.69628906 169.05004883 C14.96136598 167.74716868 13.83039122 166.25958344 11.69628906 162.92504883 C7.4176364 153.51201297 4.00542464 142.41639516 3.69628906 132.05004883 C3.64601562 131.32946289 3.59574219 130.60887695 3.54394531 129.86645508 C3.18192926 121.51112453 5.35651346 113.57644124 10.69628906 107.05004883 C16.0328045 101.3537683 22.69217872 98.29333145 29.69628906 95.05004883 C28.44074219 94.87989258 27.18519531 94.70973633 25.89160156 94.53442383 C7.30620586 91.89952758 -5.62930043 86.56876017 -17.30371094 71.05004883 C-30.64665179 51.66550663 -36.82356058 26.42428809 -35.30371094 3.05004883 C-34.61879166 0.22142115 -33.85030959 -1.4515995 -32.30371094 -3.94995117 C-23.3554966 -8.42405834 -8.9857098 -2.95005282 0 0 Z " fill="#4B3676" transform="translate(49.3037109375,52.949951171875)"/>
<path d="M0 0 C3.09187976 4.17966415 2.93817809 7.23084648 2.75390625 12.296875 C2.73473145 13.18294434 2.71555664 14.06901367 2.69580078 14.98193359 C1.85736193 40.31185125 -6.44138139 65.48625908 -24.48828125 83.81640625 C-35.76969969 94.08405667 -49.12510287 96.38982937 -63.74609375 98.046875 C-62.67230469 98.5315625 -61.59851563 99.01625 -60.4921875 99.515625 C-51.01612406 103.92741337 -43.46424448 107.86444181 -38.87109375 117.734375 C-34.05163582 131.92500113 -37.68435474 147.18297566 -42.74609375 160.859375 C-42.99504395 161.53500488 -43.24399414 162.21063477 -43.50048828 162.90673828 C-44.78251343 166.19030105 -45.89028828 168.88983044 -48.74609375 171.046875 C-53.86463741 172.96632887 -57.93577272 171.39326118 -62.80078125 169.484375 C-67.93077337 166.98061227 -72.29528192 163.58891978 -76.74609375 160.046875 C-78.32390625 158.87125 -78.32390625 158.87125 -79.93359375 157.671875 C-90.31306923 147.98436455 -97.36935318 135.62180644 -102.12109375 122.359375 C-102.35973145 121.69542725 -102.59836914 121.03147949 -102.84423828 120.34741211 C-109.642189 100.21653203 -109.42751016 76.01544305 -100.05859375 56.859375 C-85.56360055 28.92013474 -60.20890498 11.94521345 -30.859375 2.30078125 C-7.18098503 -5.10738622 -7.18098503 -5.10738622 0 0 Z " fill="#4B3676" transform="translate(245.74609375,49.953125)"/>
<path d="M0 0 C7.49309938 0.24389835 13.61878789 4.30333321 19.0625 9.1875 C29.03557567 19.86663412 37.5 37.63231677 37.5 52.4375 C38.16 52.4375 38.82 52.4375 39.5 52.4375 C39.561875 51.426875 39.62375 50.41625 39.6875 49.375 C41.83491013 32.52379549 50.13377275 16.19680448 63.0703125 5.265625 C68.67585591 1.04794925 73.66158777 -0.24634122 80.5 0.4375 C82.5625 1.625 82.5625 1.625 83.5 3.4375 C83.375 6 83.375 6 82.5 8.4375 C79.48037376 10.45058416 78.27170928 10.73134053 74.8125 11.1875 C66.89459203 12.74813114 62.65339216 16.48544255 58.04321289 23.05151367 C51.67113776 32.65690091 46.51307297 43.85751315 45.5 55.4375 C45.83 56.4275 46.16 57.4175 46.5 58.4375 C46.84465367 64.75615061 46.84465367 64.75615061 45.50484467 67.40483284 C44.3963414 69.64718756 44.24544167 71.03986624 44.23498535 73.52267456 C44.22671219 74.32726105 44.21843903 75.13184753 44.20991516 75.96081543 C44.21089706 76.83467896 44.21187897 77.70854248 44.21289062 78.60888672 C44.20264107 79.9998204 44.20264107 79.9998204 44.19218445 81.41885376 C44.17860185 83.43115695 44.1695451 85.44349461 44.16447449 87.45583725 C44.15618546 90.64199591 44.13567962 93.82786795 44.11193848 97.01394653 C44.0637043 103.78008849 44.03078068 110.54625908 44 117.3125 C43.96432105 125.14659692 43.92236578 132.98055398 43.86405945 140.81451797 C43.84401389 143.95089836 43.83567545 147.08717126 43.82775879 150.22360229 C43.81478307 152.15151355 43.80126228 154.07942124 43.78710938 156.00732422 C43.78809128 156.87713928 43.78907318 157.74695435 43.79008484 158.64312744 C43.74251762 163.30158787 43.28555378 167.05457027 41.5 171.4375 C39.85 171.7675 38.2 172.0975 36.5 172.4375 C33.25470384 167.14614606 33.06807544 162.92554369 33.09936523 156.91552734 C33.08889664 155.50470634 33.08889664 155.50470634 33.07821655 154.06538391 C33.05828073 150.96797658 33.05874015 147.8709032 33.05859375 144.7734375 C33.04682009 142.61682233 33.0334559 140.46021531 33.01856995 138.30361938 C32.98240774 132.63346985 32.96218762 126.96339256 32.94702148 121.29315186 C32.92217504 112.2103426 32.88259682 103.12769292 32.82512093 94.0450325 C32.80877934 90.87197398 32.80501337 87.6990659 32.80210876 84.52597046 C32.7923342 82.58420551 32.78207121 80.64244294 32.77124023 78.70068359 C32.77506966 77.3758622 32.77506966 77.3758622 32.77897644 76.02427673 C32.77214844 75.21127609 32.76532043 74.39827545 32.75828552 73.56063843 C32.75665122 72.85680716 32.75501692 72.15297588 32.75333309 71.42781639 C32.45670486 69.09735092 31.60094393 67.49687716 30.5 65.4375 C30.26953125 63.4375 30.26953125 63.4375 30.3125 61.4375 C30.31894531 60.7775 30.32539062 60.1175 30.33203125 59.4375 C30.5 57.4375 30.5 57.4375 31.07324219 55.55883789 C31.56671237 53.10588454 31.27333801 51.85592314 30.49609375 49.49609375 C30.25334717 48.75294922 30.01060059 48.00980469 29.76049805 47.24414062 C29.35311401 46.07141602 29.35311401 46.07141602 28.9375 44.875 C28.66010986 44.06869141 28.38271973 43.26238281 28.09692383 42.43164062 C24.07577367 31.07726929 18.37696502 18.973972 7.515625 12.71875 C4.14517419 11.28674499 1.04232496 10.64849183 -2.546875 10.0625 C-4.5 9.4375 -4.5 9.4375 -6.5 6.4375 C-5.9573015 1.96023738 -4.55129355 0.56891169 0 0 Z " fill="#4D3874" transform="translate(92.5,36.5625)"/>
</svg>
